{"asset":{"version":"2.0","generator":"babylon.js glTF exporter for 3dsmax 2022 vCustom.Build.Version"},"scene":0,"scenes":[{"nodes":[0,1]}],"nodes":[{"mesh":0,"rotation":[0.0,0.7071068,0.0,0.7071067],"name":"advent_glass"},{"children":[2,3,4,5,6,7,8],"mesh":1,"rotation":[0.0,0.7071068,0.0,0.7071067],"name":"advent_interceptor_strikecraft"},{"translation":[0.0,0.0,-3.03528069E-09],"rotation":[6.181724E-08,-0.7071068,2.512148E-15,0.7071067],"name":"center"},{"translation":[0.0,2.423809,-3.03528069E-09],"rotation":[6.181724E-08,-0.7071068,2.512148E-15,0.7071067],"name":"above"},{"translation":[0.0,-2.01359272,-3.03528069E-09],"rotation":[6.181724E-08,-0.7071068,2.512148E-15,0.7071067],"name":"aura"},{"translation":[-3.00092864,0.157814741,-1.78526914],"rotation":[0.0,0.7071068,-6.18172464E-08,0.7071068],"name":"exhaust.0"},{"translation":[-3.00092864,0.157814741,1.75669229],"rotation":[0.0,0.7071068,-6.18172464E-08,0.7071068],"name":"exhaust.1"},{"translation":[3.34703326,-0.8080373,-2.23407054],"rotation":[6.181724E-08,-0.7071068,2.512148E-15,0.7071067],"name":"weapon.0"},{"translation":[3.34703326,-0.8080373,2.22157478],"rotation":[6.181724E-08,-0.7071068,2.512148E-15,0.7071067],"name":"weapon.0 (1)"}],"meshes":[{"primitives":[{"attributes":{"POSITION":1,"NORMAL":2,"TEXCOORD_0":3},"indices":0,"material":0}],"name":"advent_glass"},{"primitives":[{"attributes":{"POSITION":5,"NORMAL":6,"TEXCOORD_0":7},"indices":4,"material":1}],"name":"advent_interceptor_strikecraft"}],"accessors":[{"bufferView":0,"componentType":5123,"count":606,"type":"SCALAR","name":"accessorIndices"},{"bufferView":1,"componentType":5126,"count":144,"max":[4.477504,0.737478,1.648651],"min":[-1.893474,-0.818365,-1.648651],"type":"VEC3","name":"accessorPositions"},{"bufferView":1,"byteOffset":1728,"componentType":5126,"count":144,"type":"VEC3","name":"accessorNormals"},{"bufferView":2,"componentType":5126,"count":144,"type":"VEC2","name":"accessorUVs"},{"bufferView":0,"byteOffset":1212,"componentType":5123,"count":38736,"type":"SCALAR","name":"accessorIndices"},{"bufferView":1,"byteOffset":3456,"componentType":5126,"count":12757,"max":[6.370876,1.570377,3.599125],"min":[-4.051441,-1.168277,-3.599125],"type":"VEC3","name":"accessorPositions"},{"bufferView":1,"byteOffset":156540,"componentType":5126,"count":12757,"type":"VEC3","name":"accessorNormals"},{"bufferView":2,"byteOffset":1152,"componentType":5126,"count":12757,"type":"VEC2","name":"accessorUVs"}],"bufferViews":[{"buffer":0,"byteLength":78684,"name":"bufferViewScalar"},{"buffer":0,"byteOffset":78684,"byteLength":309624,"byteStride":12,"name":"bufferViewFloatVec3"},{"buffer":0,"byteOffset":388308,"byteLength":103208,"byteStride":8,"name":"bufferViewFloatVec2"}],"buffers":[{"uri":"advent_interceptor_strikecraft.bin","byteLength":491516}],"materials":[{"pbrMetallicRoughness":{"baseColorFactor":[0.110466,0.179259,0.8,1.0],"metallicFactor":0.0,"roughnessFactor":0.165830582},"name":"AdventGlass"},{"pbrMetallicRoughness":{"baseColorFactor":[0.8,0.8,0.8,1.0],"metallicFactor":0.0,"roughnessFactor":0.165830582},"name":"AdventFighter"}]}